<svg width="100" height="91" viewBox="0 0 100 91" fill="none" xmlns="http://www.w3.org/2000/svg">
<mask id="mask0_143_67" style="mask-type:luminance" maskUnits="userSpaceOnUse" x="15" y="0" width="70" height="69">
<path d="M17.9382 34.0644C17.9741 16.6246 32.4936 2.04926 50.0425 2.27334C67.3432 2.07848 82.1565 16.3064 82.1174 34.1911C82.1135 38.3852 81.2788 42.5373 79.6609 46.4103C78.043 50.2832 75.6737 53.8008 72.6884 56.7621C69.7032 59.7234 66.1605 62.0702 62.263 63.6684C58.3654 65.2666 54.1895 66.0849 49.9739 66.0763H49.9445C32.0921 66.0763 17.9023 51.3418 17.9382 34.0807M50.0098 0C40.9109 0.00473729 32.1865 3.60538 25.7559 10.0098C19.3253 16.4143 15.7153 25.0979 15.7201 34.1505C15.7249 43.203 19.344 51.8829 25.7813 58.2806C32.2186 64.6784 40.9468 68.27 50.0457 68.2652C69.3311 68.2652 84.4742 52.5337 84.2718 34.1164C84.4611 15.7608 69.3181 0 50.0131 0" fill="white"/>
</mask>
<g mask="url(#mask0_143_67)">
<path d="M84.4742 0H15.712V68.2782H84.4742V0Z" fill="url(#paint0_linear_143_67)"/>
</g>
<mask id="mask1_143_67" style="mask-type:luminance" maskUnits="userSpaceOnUse" x="21" y="5" width="58" height="58">
<path d="M60.1977 43.4241C60.1977 43.1513 60.1977 42.8785 60.1977 42.6057C60.3185 39.2216 61.7776 36.5878 64.895 35.1556C66.8013 34.2788 68.0646 35.0679 68.094 36.9775C68.1397 39.9589 67.0494 42.4985 64.5947 44.2652C63.8201 44.766 62.9354 45.0735 62.0159 45.1616C61.9 45.1753 61.7834 45.1829 61.6666 45.1843C60.6873 45.1843 60.2271 44.5575 60.1977 43.4241ZM39.4433 53.3781C36.7274 50.9553 35.2324 47.8409 34.5469 44.3204C33.9875 41.6895 34.0907 38.9617 34.8472 36.38C36.388 31.2617 39.7437 28.0271 45.0579 26.9618C48.0643 26.3578 51.1164 25.9356 54.0902 25.2016C55.7583 24.7892 57.312 23.9026 58.9866 23.1978C58.7092 23.7792 58.4676 24.4157 58.1249 24.9873C56.6298 27.4717 55.1609 29.9951 52.9771 31.9567C52.0277 32.8495 50.9211 33.5607 49.7128 34.0547C48.7809 34.35 47.7736 34.3039 46.8729 33.9248C45.8054 33.4603 44.9143 32.5737 44.0003 31.8041C42.8774 30.859 42.4759 30.8298 41.5553 31.908C40.0701 33.6552 39.7437 35.7694 40.0309 37.9161C40.3474 39.8756 40.7978 41.8114 41.3791 43.7099C41.5553 44.3594 41.3791 44.5478 40.8894 44.853C39.9343 45.4347 39.0194 46.0791 38.1507 46.7821C37.5272 47.292 37.4978 47.9675 37.9124 48.4482C38.327 48.9288 38.9929 48.9353 39.5902 48.38C41.8752 46.2658 44.7054 45.4571 47.64 44.9472C50.6975 44.3887 53.8298 44.3689 56.8942 44.8888C57.2582 44.9286 57.6103 45.0412 57.9295 45.2198C58.2487 45.3984 58.5283 45.6393 58.7516 45.928C60.0573 47.6233 61.869 47.62 63.6905 47.1264C66.3019 46.4119 67.9341 44.499 69.119 42.1965C70.0588 40.4205 70.4592 38.4108 70.2713 36.4124C70.2104 36.0685 70.1231 35.7298 70.0101 35.3992C69.8404 34.7497 70.0787 34.4736 70.7217 34.6944C73.8326 35.7662 76.0817 38.2214 75.3995 41.8685C74.7662 45.2363 72.8076 47.8539 70.3105 50.0817C65.5463 54.3736 59.4832 56.9681 53.075 57.4571C52.3569 57.5221 51.6452 57.5545 50.9402 57.5545C46.6966 57.5545 42.7794 56.3724 39.4401 53.3943M32.7091 54.2354C28.0575 50.4243 24.931 45.0822 23.8955 39.1762C22.2634 30.1802 24.6855 22.3275 30.9301 15.6406C33.4632 12.9256 36.7242 11.4349 40.2692 10.597C44.7609 9.53504 49.2003 9.78186 53.4896 11.6265C55.0914 12.342 56.5339 13.3676 57.7331 14.6436C60.041 17.0241 58.9573 19.9145 57.1749 21.3175C55.7702 22.3809 54.1308 23.0957 52.3928 23.4024C49.814 23.9188 47.2025 24.276 44.6238 24.8022C38.9504 25.9811 34.9908 29.2287 33.0682 34.7204C31.2565 39.9166 31.72 45.0057 34.1454 49.8901C36.8319 55.3039 41.3268 58.334 47.2613 59.3505C51.5963 60.0812 55.8399 59.594 60.0116 58.3047L61.2618 57.9313L61.3891 58.2268C59.6852 58.7854 58.0139 59.4836 56.274 59.8733C54.1096 60.3658 51.8971 60.6185 49.6769 60.6268C43.5008 60.6268 37.8177 58.5223 32.7026 54.2452M52.2361 35.4089C54.8475 33.6162 56.8061 31.2552 58.4382 28.6344C59.5365 26.9728 60.469 25.2086 61.2227 23.3667C62.894 18.9239 61.5491 14.6501 57.7723 11.6752C55.3208 9.74289 52.4907 8.68416 49.4451 8.16129C49.2036 8.11907 48.9587 8.08335 48.7204 8.02489C48.6584 8.02489 48.6095 7.93071 48.3679 7.70013C56.4666 7.37537 63.2726 9.85656 68.8513 15.4133C74.5083 21.0447 76.9565 27.9264 76.6301 35.7921L76.3396 35.9221C76.196 35.8084 76.0597 35.6858 75.9316 35.5551C74.1754 33.5448 71.9491 32.5055 69.2985 32.171C63.9679 31.4923 59.5416 34.649 58.4056 39.449C58.1934 40.3453 58.0139 41.2547 57.8702 42.1672C57.7952 42.6219 57.6124 42.7811 57.1586 42.6999C52.9794 41.9863 48.6922 42.2216 44.6172 43.3884C43.8828 43.593 43.5531 43.3884 43.2919 42.6544C42.3681 40.0563 41.8328 37.4582 42.4857 34.7172C42.6946 33.8338 42.8774 33.7916 43.5074 34.4411C44.1556 35.0996 44.9304 35.6215 45.7857 35.9758C46.6409 36.3301 47.559 36.5095 48.4854 36.5034C49.8208 36.5189 51.13 36.1341 52.2426 35.3992M49.9348 5.43653C46.1455 5.44973 42.3959 6.20556 38.9003 7.66086C35.4047 9.11615 32.2316 11.2424 29.5621 13.9181C26.8927 16.5938 24.7793 19.7666 23.3427 23.2551C21.9061 26.7436 21.1744 30.4796 21.1894 34.2495C21.2221 50.046 34.2466 62.9781 50.1633 62.8482C57.8156 62.8253 65.1453 59.7791 70.5401 54.3796C75.9349 48.98 78.9527 41.6695 78.9298 34.0563C78.9069 26.443 75.845 19.1507 70.4178 13.7834C64.9906 8.41617 57.6426 5.41371 49.9903 5.43653H49.9348Z" fill="white"/>
</mask>
<g mask="url(#mask1_143_67)">
<path d="M78.9512 5.43654H21.1602V62.9781H78.9512V5.43654Z" fill="url(#paint1_linear_143_67)"/>
</g>
<mask id="mask2_143_67" style="mask-type:luminance" maskUnits="userSpaceOnUse" x="61" y="20" width="13" height="12">
<path d="M64.2617 27.6309C64.2576 26.4134 64.3241 25.1968 64.4608 23.987C64.5848 23.1199 65.2149 22.5581 66.1191 22.3632C66.2918 22.3119 66.4742 22.3016 66.6517 22.3332C66.8291 22.3648 66.9967 22.4373 67.1408 22.545C67.285 22.6527 67.4017 22.7926 67.4816 22.9534C67.5616 23.1141 67.6025 23.2913 67.601 23.4706C67.6272 23.8474 67.5782 24.2338 67.601 24.6138C67.6435 25.4192 68.218 25.8317 69.008 25.6433C69.0602 25.6433 69.1124 25.6076 69.1646 25.5913C70.3071 25.2666 70.9567 25.442 71.2897 26.1824C71.5965 26.8579 71.244 27.6406 70.3365 28.2154C69.2626 28.8974 68.0515 28.865 67.0135 28.8974C66.4948 28.8109 65.9717 28.7535 65.4466 28.7253H65.4401C64.673 28.7253 64.2486 28.3778 64.2682 27.6179M62.388 23.3018C62.1705 24.2583 62.0016 25.2252 61.882 26.1986C62.0485 27.2736 62.1921 28.3226 62.3749 29.3683C62.3992 29.6719 62.5249 29.9586 62.7319 30.1828C62.939 30.407 63.2155 30.5559 63.5174 30.6057C64.2715 30.7421 65.0255 30.8915 65.7861 30.9922C67.7186 31.2455 69.6053 31.2065 71.3713 30.1997C72.5007 29.5502 73.8652 28.066 73.5682 26.0525C73.3658 24.6982 72.2625 23.5811 70.6303 23.2498C70.389 23.2264 70.1615 23.1267 69.9812 22.9654C69.8009 22.8042 69.6772 22.5897 69.6282 22.3535C69.4881 21.8647 69.2243 21.4199 68.8619 21.0616C68.4995 20.7034 68.0508 20.4437 67.5586 20.3074C67.1892 20.1904 66.8038 20.1312 66.4161 20.1321C65.491 20.1527 64.5981 20.4735 63.8732 21.0457C63.1484 21.6179 62.6314 22.4102 62.401 23.3018" fill="white"/>
</mask>
<g mask="url(#mask2_143_67)">
<path d="M73.8587 20.1451H61.8755V31.2617H73.8587V20.1451Z" fill="url(#paint2_linear_143_67)"/>
</g>
<mask id="mask3_143_67" style="mask-type:luminance" maskUnits="userSpaceOnUse" x="0" y="74" width="10" height="17">
<path d="M2.08353 74.6955C1.82064 74.6925 1.56016 74.7457 1.31968 74.8514C1.09268 74.9505 0.886645 75.0916 0.712525 75.2671C0.539985 75.444 0.401666 75.6509 0.304489 75.8777C0.203269 76.1114 0.152129 76.3636 0.154332 76.6181V88.7643C0.151827 89.0091 0.198437 89.252 0.291432 89.4787C0.379795 89.6937 0.50703 89.8908 0.666825 90.0601C0.828112 90.2274 1.01971 90.3629 1.23155 90.4595C1.45334 90.5601 1.69062 90.6227 1.93337 90.6446H8.06697C8.32369 90.6553 8.57972 90.611 8.81775 90.5147C9.04686 90.4239 9.25386 90.2855 9.42491 90.1088C9.59827 89.9339 9.73478 89.7263 9.82642 89.4982C9.92314 89.261 9.97195 89.0072 9.97005 88.7513C9.97097 88.4933 9.92221 88.2375 9.82642 87.9978C9.73571 87.7673 9.59914 87.5575 9.42491 87.3808C9.25174 87.2041 9.04548 87.0629 8.81775 86.9651C8.58157 86.8603 8.32555 86.8071 8.06697 86.8092H4.02251V84.5781H6.77757C7.03425 84.5801 7.28899 84.5339 7.52836 84.4417C7.75537 84.355 7.96366 84.2261 8.14205 84.0617C8.31922 83.8959 8.46224 83.6973 8.56314 83.4771C8.66548 83.2436 8.71773 82.9914 8.71656 82.7367C8.71807 82.4798 8.66582 82.2254 8.56314 81.9897C8.46172 81.7621 8.31897 81.5552 8.14205 81.3792C7.96742 81.2036 7.75859 81.0655 7.52836 80.9732C7.29032 80.8769 7.0343 80.8326 6.77757 80.8433H4.02251V78.5505H8.06697C8.31965 78.5524 8.57013 78.5036 8.80344 78.4071C9.03676 78.3106 9.24813 78.1682 9.42491 77.9886C9.59986 77.8125 9.73652 77.6025 9.82642 77.3716C9.92253 77.1319 9.97129 76.8761 9.97005 76.6181C9.97103 76.3623 9.92225 76.1086 9.82642 75.8712C9.73454 75.6432 9.59807 75.4357 9.42492 75.2606C9.25176 75.0856 9.04538 74.9465 8.81775 74.8514C8.58064 74.7503 8.32494 74.6994 8.06697 74.702L2.08353 74.6955Z" fill="white"/>
</mask>
<g mask="url(#mask3_143_67)">
<path d="M1.29425 71.4063L-4.96979 88.6362L8.85656 93.6117L15.1206 76.3818L1.29425 71.4063Z" fill="url(#paint3_linear_143_67)"/>
</g>
<mask id="mask4_143_67" style="mask-type:luminance" maskUnits="userSpaceOnUse" x="10" y="74" width="16" height="17">
<path d="M16.8022 74.8936C15.4321 75.2813 14.1919 76.0284 13.2115 77.0566C12.7336 77.5555 12.3201 78.1119 11.9809 78.7129C11.6393 79.316 11.3761 79.9599 11.1974 80.629C11.0151 81.308 10.9229 82.0078 10.9232 82.7107C10.9166 83.7909 11.1333 84.861 11.5598 85.8544C12.3775 87.7881 13.9175 89.3308 15.8556 90.1575C16.8334 90.5875 17.8909 90.8088 18.9599 90.807C20.0417 90.8103 21.1134 90.5995 22.1126 90.1869C23.1118 89.7743 24.0185 89.1682 24.7801 88.4038C24.9564 88.2274 25.0951 88.0176 25.1882 87.7867C25.3796 87.3193 25.3796 86.796 25.1882 86.3286C25.0902 86.0919 24.9434 85.8784 24.7573 85.7018C24.5834 85.527 24.3711 85.3947 24.1371 85.3153C23.9014 85.2313 23.6529 85.1885 23.4026 85.1886C23.1529 85.1894 22.9052 85.2345 22.6714 85.3218C22.4383 85.406 22.2265 85.5402 22.0512 85.7147C21.6352 86.1293 21.1388 86.4553 20.5921 86.6728C20.071 86.8683 19.5166 86.9609 18.9599 86.9456C18.3895 86.9431 17.8259 86.8226 17.3049 86.5916C16.8139 86.371 16.3704 86.0578 15.9992 85.6693C15.6245 85.2798 15.3266 84.8237 15.1211 84.3248C14.9056 83.8102 14.7947 83.2583 14.7947 82.7009C14.7848 82.1279 14.896 81.5592 15.1211 81.0317C15.3403 80.5321 15.6552 80.0799 16.0482 79.7001C16.4369 79.3261 16.8932 79.0286 17.3931 78.8233C17.9091 78.6052 18.4646 78.4947 19.0252 78.4985C19.5808 78.497 20.1327 78.5892 20.6573 78.7713C21.1994 78.9643 21.6889 79.28 22.0871 79.6936C22.2635 79.8715 22.4761 80.0099 22.7106 80.0996C22.9428 80.1869 23.1904 80.2267 23.4385 80.2165C23.6898 80.2098 23.9377 80.157 24.1697 80.0606C24.4073 79.9668 24.6228 79.8253 24.803 79.6449C24.9827 79.4662 25.1257 79.2544 25.2241 79.0214C25.317 78.7957 25.3646 78.5541 25.3645 78.3102C25.3641 78.0677 25.3176 77.8274 25.2274 77.6022C25.1419 77.3628 25.0023 77.1461 24.8193 76.9689C24.0507 76.1903 23.1297 75.5768 22.1132 75.1664C21.1388 74.7764 20.0984 74.5758 19.0481 74.5754C18.2899 74.5725 17.535 74.6753 16.8055 74.8807" fill="white"/>
</mask>
<g mask="url(#mask4_143_67)">
<path d="M12.5739 69.8132L5.68945 88.7495L23.6889 95.2267L30.5733 76.2904L12.5739 69.8132Z" fill="url(#paint4_linear_143_67)"/>
</g>
<mask id="mask5_143_67" style="mask-type:luminance" maskUnits="userSpaceOnUse" x="26" y="74" width="17" height="17">
<path d="M32.9049 86.6079C32.4005 86.4015 31.9415 86.0993 31.5535 85.718C31.1644 85.3355 30.8578 84.878 30.6526 84.3735C30.4321 83.8423 30.3211 83.2724 30.3261 82.6977C30.3224 82.1336 30.4334 81.5746 30.6526 81.0544C30.8594 80.5508 31.1658 80.0936 31.5535 79.7099C32.1579 79.1167 32.925 78.7145 33.7584 78.5539C34.5919 78.3932 35.4545 78.4813 36.2378 78.807C36.7412 79.0173 37.1982 79.3241 37.5826 79.7099C37.9661 80.097 38.2719 80.5533 38.4836 81.0544C38.7041 81.5742 38.8152 82.1335 38.81 82.6977C38.8139 83.2571 38.7069 83.8118 38.4951 84.33C38.2834 84.8482 37.9711 85.3199 37.5761 85.718C37.1911 86.0999 36.7341 86.4023 36.2312 86.6079C35.1629 87.0409 33.9667 87.0409 32.8984 86.6079M32.3859 74.8807C31.7071 75.0699 31.0554 75.345 30.4469 75.6991C29.8497 76.0474 29.301 76.4721 28.8148 76.9624C27.678 78.1094 26.9071 79.565 26.5987 81.1463C26.2903 82.7277 26.4583 84.3644 27.0814 85.8512C27.4893 86.808 28.0752 87.6796 28.8082 88.42C29.5455 89.1612 30.4216 89.7515 31.387 90.1575C32.391 90.5776 33.4691 90.794 34.5583 90.794C35.6474 90.794 36.7256 90.5776 37.7295 90.1575C38.7049 89.7521 39.5918 89.162 40.341 88.42C41.082 87.6807 41.6766 86.8092 42.0939 85.8512C42.8037 84.1692 42.921 82.2979 42.4268 80.5413C42.0465 79.1905 41.3224 77.9601 40.3246 76.9689C39.8319 76.4778 39.2766 76.053 38.6729 75.7056C38.0576 75.3511 37.3995 75.0761 36.7143 74.8871C35.2992 74.4974 33.8043 74.4974 32.3892 74.8871" fill="white"/>
</mask>
<g mask="url(#mask5_143_67)">
<path d="M28.3477 69.3866L21.2091 88.8996L40.8161 95.9996L47.9547 76.4865L28.3477 69.3866Z" fill="url(#paint5_linear_143_67)"/>
</g>
<mask id="mask6_143_67" style="mask-type:luminance" maskUnits="userSpaceOnUse" x="44" y="74" width="13" height="17">
<path d="M48.7563 84.2176H51.4363C51.5913 84.2191 51.7443 84.2511 51.8868 84.3118C52.1907 84.4387 52.4394 84.6689 52.5886 84.9613C52.6625 85.1085 52.7005 85.2709 52.6996 85.4355C52.6995 85.6051 52.6616 85.7726 52.5886 85.9258C52.5134 86.0874 52.4119 86.2355 52.2883 86.3643C52.1668 86.4876 52.027 86.5917 51.8737 86.6728C51.7362 86.7501 51.5812 86.7915 51.4233 86.793H48.7563V84.2176ZM48.7563 78.5505H51.0968C51.2292 78.5515 51.3605 78.5746 51.4853 78.6187C51.6139 78.6621 51.7342 78.7269 51.8411 78.8103C51.9489 78.9011 52.0386 79.0113 52.1055 79.135C52.1772 79.2607 52.2144 79.403 52.2132 79.5475C52.2123 79.6927 52.1823 79.8362 52.1251 79.9697C52.0682 80.111 51.9876 80.2417 51.8868 80.3562C51.7889 80.4706 51.6719 80.5673 51.5408 80.6419C51.4214 80.7154 51.2858 80.7589 51.1458 80.7686H48.7563V78.5505ZM46.8892 74.6955H46.8337C46.5747 74.6933 46.318 74.7442 46.0796 74.8449C45.8517 74.9416 45.6437 75.0792 45.4659 75.2509C45.2912 75.4217 45.1515 75.6246 45.0546 75.8484C44.9527 76.082 44.9015 76.3343 44.9045 76.5889V88.7448C44.9018 89.0015 44.953 89.2558 45.0546 89.4917C45.1502 89.7182 45.29 89.9235 45.4659 90.0958C45.6419 90.2681 45.8505 90.4039 46.0796 90.4953C46.3194 90.5909 46.5754 90.6394 46.8337 90.6382H51.5897C52.912 90.6405 54.1811 90.1207 55.1184 89.193C55.5729 88.743 55.9363 88.2105 56.1891 87.6244C56.4477 87.0206 56.581 86.371 56.581 85.7147C56.581 85.0584 56.4477 84.4089 56.1891 83.8051C55.9381 83.2215 55.5769 82.6912 55.125 82.243C55.4318 81.8499 55.6752 81.4116 55.8464 80.944C56.019 80.4546 56.1062 79.9395 56.1043 79.4208C56.1066 78.801 55.9855 78.1868 55.748 77.6138C55.5104 77.0408 55.1611 76.5202 54.7202 76.0823C54.2866 75.655 53.7746 75.3143 53.2121 75.0788C52.6254 74.8328 51.9946 74.7079 51.358 74.7118L46.8892 74.6955Z" fill="white"/>
</mask>
<g mask="url(#mask6_143_67)">
<path d="M46.2561 70.9671L39.7394 88.7803L55.2053 94.3807L61.7221 76.5675L46.2561 70.9671Z" fill="url(#paint6_linear_143_67)"/>
</g>
<mask id="mask7_143_67" style="mask-type:luminance" maskUnits="userSpaceOnUse" x="57" y="74" width="15" height="17">
<path d="M64.4608 80.866L65.4401 83.1848H63.5501L64.4608 80.866ZM63.5109 75.0203C63.1928 75.2325 62.9443 75.5329 62.796 75.8842L57.5079 87.9426C57.3938 88.1787 57.3273 88.4346 57.312 88.6961C57.2999 88.9401 57.332 89.1843 57.4067 89.417C57.4808 89.6472 57.6057 89.8581 57.7723 90.0341C57.9543 90.226 58.1775 90.3747 58.4251 90.4693C58.6676 90.5775 58.9298 90.635 59.1955 90.6382C59.4508 90.644 59.705 90.6044 59.9463 90.5212C60.1881 90.438 60.4102 90.3064 60.5991 90.1348C60.7931 89.9545 60.9428 89.7323 61.0366 89.4852L62.0158 87.0203H67.0363L68.0613 89.4852C68.1703 89.7306 68.328 89.9515 68.5248 90.1348C68.7145 90.3071 68.9363 90.4406 69.1777 90.5277C69.6651 90.7075 70.2037 90.6912 70.6793 90.4823C70.9117 90.3881 71.1202 90.2437 71.2896 90.0595C71.459 89.8752 71.585 89.6558 71.6585 89.417C71.7305 89.1838 71.7582 88.9393 71.7402 88.6961C71.722 88.4362 71.659 88.1813 71.5541 87.9426L66.3312 75.8712C66.1911 75.5206 65.9461 75.2213 65.6294 75.0138C65.3254 74.8145 64.9684 74.7105 64.6044 74.715C64.2268 74.7074 63.8558 74.8138 63.5403 75.0203" fill="white"/>
</mask>
<g mask="url(#mask7_143_67)">
<path d="M58.9871 70.0877L52.1499 88.7767L70.033 95.2524L76.8702 76.5634L58.9871 70.0877Z" fill="url(#paint7_linear_143_67)"/>
</g>
<mask id="mask8_143_67" style="mask-type:luminance" maskUnits="userSpaceOnUse" x="73" y="74" width="13" height="17">
<path d="M77.4624 84.2176H80.1294C80.2843 84.2191 80.4374 84.2511 80.5798 84.3118C80.7302 84.3738 80.8683 84.4617 80.9879 84.5716C81.1084 84.6843 81.2078 84.8173 81.2817 84.9645C81.3565 85.1115 81.3957 85.2739 81.3959 85.4387C81.3946 85.6085 81.3556 85.776 81.2817 85.9291C81.2078 86.0914 81.1062 86.2397 80.9814 86.3675C80.8615 86.4914 80.7227 86.5955 80.5701 86.6761C80.4322 86.7526 80.2774 86.7939 80.1196 86.7962H77.4494L77.4624 84.2176ZM77.4624 78.5505H79.8029C80.0727 78.5547 80.3339 78.6458 80.5472 78.8103C80.655 78.9011 80.7447 79.0112 80.8116 79.135C80.8808 79.2616 80.9168 79.4034 80.9161 79.5475C80.9151 79.6926 80.8852 79.8362 80.8279 79.9697C80.7711 80.111 80.6905 80.2417 80.5896 80.3562C80.4983 80.4696 80.3879 80.5663 80.2632 80.6419C80.1436 80.715 80.0082 80.7584 79.8682 80.7686H77.4755L77.4624 78.5505ZM75.5985 74.6955H75.5235C75.2655 74.6929 75.0098 74.7438 74.7727 74.8449C74.5444 74.9408 74.3362 75.0785 74.159 75.2509C73.9822 75.4207 73.8413 75.6238 73.7444 75.8484C73.644 76.0825 73.5929 76.3345 73.5943 76.5889V88.7448C73.5933 89.0013 73.6444 89.2553 73.7444 89.4917C73.94 89.9486 74.3098 90.3095 74.7727 90.4953C75.0111 90.5915 75.2662 90.64 75.5235 90.6382H80.2795C80.9467 90.6423 81.6076 90.5108 82.2218 90.2517C82.8159 90.0051 83.3559 89.6455 83.8115 89.193C84.2638 88.7413 84.627 88.2092 84.8822 87.6244C85.1408 87.0206 85.2741 86.371 85.2741 85.7147C85.2741 85.0584 85.1408 84.4089 84.8822 83.8051C84.63 83.2221 84.2689 82.692 83.818 82.243C84.125 81.8505 84.3674 81.4121 84.5362 80.944C84.7107 80.4551 84.7979 79.9396 84.794 79.4208C84.7984 78.8007 84.6782 78.1859 84.4405 77.6126C84.2029 77.0393 83.8525 76.519 83.41 76.0823C82.9769 75.6543 82.4648 75.3135 81.9019 75.0787C81.3153 74.8324 80.6844 74.7076 80.0478 74.7118L75.5985 74.6955Z" fill="white"/>
</mask>
<g mask="url(#mask8_143_67)">
<path d="M74.9613 70.9682L68.4446 88.7814L83.9105 94.3819L90.4273 76.5686L74.9613 70.9682Z" fill="url(#paint8_linear_143_67)"/>
</g>
<mask id="mask9_143_67" style="mask-type:luminance" maskUnits="userSpaceOnUse" x="86" y="74" width="14" height="17">
<path d="M97.7761 74.7443C97.5284 74.7574 97.2861 74.8215 97.0645 74.9326C96.8312 75.0441 96.6243 75.2035 96.4574 75.4003L92.9385 81.0674L89.4065 75.423C89.2509 75.2161 89.047 75.05 88.8124 74.9391C88.5879 74.8307 88.3435 74.7688 88.0943 74.7572C87.8404 74.7444 87.5866 74.7808 87.3467 74.8644C87.1041 74.946 86.8816 75.0777 86.6939 75.2509C86.4997 75.4267 86.3403 75.6371 86.2238 75.8712C86.1144 76.0961 86.049 76.3397 86.0312 76.5889C86.0151 76.8347 86.045 77.0814 86.1194 77.3164C86.1972 77.554 86.3202 77.7745 86.4817 77.9659L91.0256 84.8769V88.7383C91.023 89.114 91.134 89.4818 91.3441 89.7939C91.5542 90.106 91.8538 90.3481 92.204 90.4888C92.6862 90.6793 93.2234 90.6793 93.7056 90.4888C94.1684 90.303 94.5382 89.9421 94.7338 89.4853C94.8328 89.2487 94.8828 88.9946 94.8807 88.7383V84.8411L99.3887 77.9432C99.5598 77.7232 99.6903 77.4747 99.7739 77.2092C99.8483 76.9709 99.876 76.7207 99.8555 76.472C99.8358 76.2318 99.7658 75.9984 99.6498 75.7867C99.5313 75.5699 99.3743 75.3763 99.1863 75.2152C98.9972 75.0453 98.775 74.916 98.5335 74.8352C98.3292 74.7673 98.1155 74.7322 97.9002 74.7313H97.799" fill="white"/>
</mask>
<g mask="url(#mask9_143_67)">
<path d="M87.6298 70.3142L80.8719 88.7866L98.2427 95.0768L105.001 76.6044L87.6298 70.3142Z" fill="url(#paint9_linear_143_67)"/>
</g>
<defs>
<linearGradient id="paint0_linear_143_67" x1="50.2723" y1="68.2659" x2="50.2723" y2="0.000651028" gradientUnits="userSpaceOnUse">
<stop stop-color="#F5B5D2"/>
<stop offset="0.59" stop-color="#8CCDCA"/>
<stop offset="1" stop-color="#8CCDCA"/>
</linearGradient>
<linearGradient id="paint1_linear_143_67" x1="50.7891" y1="62.7351" x2="50.7891" y2="5.32346" gradientUnits="userSpaceOnUse">
<stop stop-color="#F5B5D2"/>
<stop offset="0.59" stop-color="#8CCDCA"/>
<stop offset="1" stop-color="#8CCDCA"/>
</linearGradient>
<linearGradient id="paint2_linear_143_67" x1="67.9334" y1="31.1281" x2="67.9334" y2="20.1349" gradientUnits="userSpaceOnUse">
<stop stop-color="#F5B5D2"/>
<stop offset="0.59" stop-color="#8CCDCA"/>
<stop offset="1" stop-color="#8CCDCA"/>
</linearGradient>
<linearGradient id="paint3_linear_143_67" x1="2.14215" y1="90.6305" x2="7.98678" y2="74.3889" gradientUnits="userSpaceOnUse">
<stop stop-color="#F5B5D2"/>
<stop offset="0.38" stop-color="#8CCDCA"/>
<stop offset="1" stop-color="#8CCDCA"/>
</linearGradient>
<linearGradient id="paint4_linear_143_67" x1="14.5824" y1="89.7361" x2="20.0773" y2="74.4664" gradientUnits="userSpaceOnUse">
<stop stop-color="#F5B5D2"/>
<stop offset="0.38" stop-color="#8CCDCA"/>
<stop offset="1" stop-color="#8CCDCA"/>
</linearGradient>
<linearGradient id="paint5_linear_143_67" x1="31.2993" y1="90.268" x2="36.8214" y2="75.0184" gradientUnits="userSpaceOnUse">
<stop stop-color="#F5B5D2"/>
<stop offset="0.38" stop-color="#8CCDCA"/>
<stop offset="1" stop-color="#8CCDCA"/>
</linearGradient>
<linearGradient id="paint6_linear_143_67" x1="47.1542" y1="91.0055" x2="52.9252" y2="75.0685" gradientUnits="userSpaceOnUse">
<stop stop-color="#F5B5D2"/>
<stop offset="0.38" stop-color="#8CCDCA"/>
<stop offset="1" stop-color="#8CCDCA"/>
</linearGradient>
<linearGradient id="paint7_linear_143_67" x1="60.428" y1="91.3875" x2="66.2333" y2="75.3558" gradientUnits="userSpaceOnUse">
<stop stop-color="#F5B5D2"/>
<stop offset="0.38" stop-color="#8CCDCA"/>
<stop offset="1" stop-color="#8CCDCA"/>
</linearGradient>
<linearGradient id="paint8_linear_143_67" x1="75.8594" y1="91.0066" x2="81.6304" y2="75.0696" gradientUnits="userSpaceOnUse">
<stop stop-color="#F5B5D2"/>
<stop offset="0.38" stop-color="#8CCDCA"/>
<stop offset="1" stop-color="#8CCDCA"/>
</linearGradient>
<linearGradient id="paint9_linear_143_67" x1="90.8858" y1="89.9124" x2="96.6303" y2="74.0487" gradientUnits="userSpaceOnUse">
<stop stop-color="#F5B5D2"/>
<stop offset="0.38" stop-color="#8CCDCA"/>
<stop offset="1" stop-color="#8CCDCA"/>
</linearGradient>
</defs>
</svg>
